<?xml version="1.0" encoding="UTF-8" standalone="no"?>
<svg
   xmlns:dc="http://purl.org/dc/elements/1.1/"
   xmlns:cc="http://creativecommons.org/ns#"
   xmlns:rdf="http://www.w3.org/1999/02/22-rdf-syntax-ns#"
   xmlns:svg="http://www.w3.org/2000/svg"
   xmlns="http://www.w3.org/2000/svg"
   xmlns:sodipodi="http://sodipodi.sourceforge.net/DTD/sodipodi-0.dtd"
   xmlns:inkscape="http://www.inkscape.org/namespaces/inkscape"
   version="1.1"
   viewBox="0 0 630 630"
   id="svg2"
   inkscape:version="0.48.4 r9939"
   width="100%"
   height="100%"
   sodipodi:docname="js.svg">
  <metadata
     id="metadata12">
    <rdf:RDF>
      <cc:Work
         rdf:about="">
        <dc:format>image/svg+xml</dc:format>
        <dc:type
           rdf:resource="http://purl.org/dc/dcmitype/StillImage" />
        <dc:title></dc:title>
      </cc:Work>
    </rdf:RDF>
  </metadata>
  <defs
     id="defs10">
    <filter
       id="filter3053"
       inkscape:label="Cool outside"
       inkscape:menu="Morphology"
       inkscape:menu-tooltip="Blurred colorized contour, empty inside"
       color-interpolation-filters="sRGB">
      <feGaussianBlur
         id="feGaussianBlur3055"
         stdDeviation="2"
         result="result1" />
      <feOffset
         id="feOffset3057"
         dx="2"
         dy="2" />
      <feConvolveMatrix
         id="feConvolveMatrix3059"
         result="result3"
         order="3 3"
         kernelMatrix="2 0 0 0 8 0 4 0 -4 "
         divisor="2"
         bias="0"
         targetX="0" />
      <feComposite
         id="feComposite3061"
         in2="result1"
         operator="xor"
         result="result2"
         in="result3" />
      <feColorMatrix
         id="feColorMatrix3063"
         values="91.7"
         result="fbSourceGraphic"
         type="hueRotate" />
      <feBlend
         id="feBlend3065"
         in2="result3"
         mode="multiply"
         result="result4"
         in="fbSourceGraphic" />
      <feComposite
         id="feComposite3067"
         in2="result4"
         operator="in"
         result="result6"
         in="fbSourceGraphic" />
    </filter>
  </defs>
  <sodipodi:namedview
     pagecolor="#ffffff"
     bordercolor="#666666"
     borderopacity="1"
     objecttolerance="10"
     gridtolerance="10"
     guidetolerance="10"
     inkscape:pageopacity="0"
     inkscape:pageshadow="2"
     inkscape:window-width="1366"
     inkscape:window-height="744"
     id="namedview8"
     showgrid="false"
     inkscape:zoom="0.37460317"
     inkscape:cx="315"
     inkscape:cy="315"
     inkscape:window-x="0"
     inkscape:window-y="24"
     inkscape:window-maximized="1"
     inkscape:current-layer="svg2"
     showguides="true"
     inkscape:guide-bbox="true" />
  <!--
  DO WHAT THE FUCK YOU WANT TO PUBLIC LICENSE
  Version 2, December 2004

  Copyright (C) 2011 Christopher Williams <chris@iterativedesigns.com>,
                     Manuel Strehl <boldewyn@gmail.com>

  Everyone is permitted to copy and distribute verbatim or modified
  copies of this license document, and changing it is allowed as long
  as the name is changed.

  DO WHAT THE FUCK YOU WANT TO PUBLIC LICENSE
  TERMS AND CONDITIONS FOR COPYING, DISTRIBUTION AND MODIFICATION

  0. You just DO WHAT THE FUCK YOU WANT TO.
-->
  <rect
     style="fill:#f7df1e"
     height="630"
     width="630"
     y="0"
     x="0"
     id="background" />
  <path
     style="fill:#333333;fill-opacity:1;stroke:none"
     d="m 495.434,109.82309 c -5.24053,2.90143 -11.58137,2.72169 -16.41443,6.51562 -2.94756,1.66026 -6.7507,1.62793 -7.54363,5.66089 -1.83291,2.95855 -4.30117,4.94448 -3.63411,8.83086 2.37685,0.0552 6.35306,-0.99814 6.78295,2.90444 1.41032,3.47821 -1.23087,6.22299 -3.30047,8.7202 -2.00063,6.40805 -3.12995,13.04744 -5.46019,19.35048 3.40141,2.9853 0.58487,6.03479 -2.95145,6.27183 -2.63292,3.00503 -5.31588,7.68262 -10.01219,6.24473 -2.61359,0.57774 -7.18305,-4.7431 -7.83762,-0.77512 -1.09361,4.6594 -3.68566,9.29794 -3.88589,13.96931 -1.22854,2.57405 -0.24079,7.01714 -2.71447,9.15285 -2.53785,1.69261 0.72026,5.98563 2.7348,7.34669 2.95186,3.57033 4.63893,-3.15988 8.65877,-2.01789 3.28245,-2.35923 7.45141,4.41739 8.62295,-0.92797 0.89832,-3.41871 6.11316,-4.3816 8.68151,-2.28554 3.17754,0.86584 4.77346,2.66334 7.28993,4.6576 3.13258,1.14832 6.01577,4.52772 5.89697,7.56559 -2.57252,3.78087 -7.16079,-0.96737 -10.14836,1.47067 -3.76616,-2.00577 -5.73899,3.08946 -8.84269,3.62788 -3.69462,-1.6699 -2.93802,4.49552 -7.51943,2.97599 -3.08178,2.62199 -5.93857,6.28288 -5.49711,10.55145 -2.40239,2.92608 -4.92568,5.61655 -9.03072,5.22493 -3.75322,-0.34056 -5.91053,1.34141 -7.1633,4.7245 -2.93911,2.04365 -4.77648,6.97376 -8.96416,5.74627 -3.72214,0.72716 -6.38869,-1.33432 -9.52086,-2.11683 -4.01426,-0.97215 -6.60857,0.18851 -7.02613,4.52463 -0.38496,2.8998 -4.1512,6.37944 -0.90125,8.64215 1.57616,2.59395 6.37597,5.13077 2.4143,7.39062 -2.39102,2.49674 -6.38037,3.03317 -7.79987,6.59365 -2.37592,3.51394 -4.80754,6.96277 -9.04263,8.30277 -5.70369,3.93682 -13.11081,1.56885 -19.38955,3.96436 -4.04002,-1.71429 -6.54655,0.77149 -10.15631,1.85009 -7.00009,2.1321 -13.10716,6.48513 -19.26599,10.34308 -3.28945,-1.09128 -4.19695,-5.39821 -8.3301,-2.50439 -6.17321,-1.42887 -12.34983,-3.27577 -18.565,-4.70821 -1.91364,-3.29825 -4.69592,-5.07524 -8.55394,-4.96015 -6.21804,-0.74927 -12.44004,-3.07389 -18.64404,-1.01726 -6.19986,1.31753 -12.29764,-1.96795 -18.58733,-1.70389 -3.96003,-0.25568 -8.23736,-1.12107 -11.69795,-2.73364 -3.41973,-3.55692 -5.16142,-7.95957 -6.21349,-12.70979 -0.44056,-3.41032 -3.14134,-5.3857 -3.46598,-8.0538 -6.03473,-0.95205 -10.70724,-5.37642 -15.15167,-9.2771 -3.09235,-3.99674 -8.84019,-2.51217 -13.23999,-3.8074 -3.80982,-0.25716 -7.41685,-1.1369 -10.60572,-3.27382 -4.56996,0.65547 -4.82225,-4.7482 -2.19071,-7.14901 3.91517,-2.27835 0.57349,-6.2212 2.78046,-8.80659 2.79281,-5.10193 -3.37634,-9.02934 -3.33196,-14.08953 0.0486,-3.30921 -2.6593,-5.51003 -4.17526,-8.19462 -3.44478,1.50664 -4.29844,-5.131 -8.04266,-2.38578 -3.57916,-0.10841 -2.45278,-6.04229 -5.88003,-6.97459 -2.36005,-1.42501 -4.43603,-5.13888 -3.28797,-7.68429 1.15643,-5.47615 -2.54256,-2.45988 -5.6675,-3.70438 -2.87849,-1.08596 -7.30957,-0.27321 -6.48881,3.72284 -0.68785,4.08191 -5.57358,4.98612 -8.94657,3.74464 -2.67637,0.90957 -2.99265,6.12311 -4.75923,8.68836 -0.51585,2.8543 1.60137,7.15685 -0.89316,9.13232 -2.98745,-0.24238 -5.55813,3.44315 -7.67007,0.45826 -2.68082,-2.20548 -6.43009,-0.64001 -8.97927,-3.22203 -2.69309,-1.02641 -6.6859,-5.74419 -7.18972,-0.51923 -3.29972,6.79784 -7.84199,12.97515 -10.68521,20.03123 4.14479,3.21176 1.5788,4.12754 -2.30563,3.22093 -2.08518,-2.87705 -4.7033,-3.84904 -8.42955,-2.25626 -4.72221,1.40636 -10.70264,-1.70315 -14.143183,2.82389 -1.542018,2.28816 6.847283,2.65955 3.431393,6.28431 -1.58391,3.76299 -1.29971,7.56392 -0.11394,11.38971 0.14076,2.937 0.97037,7.42068 -3.021654,7.35578 0.817814,3.77211 -5.125946,2.57198 -4.112194,6.50135 -0.231332,3.93432 -0.769409,6.21031 -4.53664,6.1956 -3.983127,1.60502 -8.597232,1.6881 -12.661544,3.39654 -4.231889,0.0265 -5.785087,6.1846 -10.205667,4.45824 -3.390499,0.58533 -6.910245,-3.09824 -9.700421,-2.09151 -2.42995,2.24184 -4.466564,6.13257 -7.692142,6.74871 -3.655294,-0.32721 -5.371897,-1.22795 -5.700086,-5.34677 -3.104905,1.99848 -6.223455,1.3128 -9.333969,-0.29513 0.305983,3.66473 -5.074352,3.93344 -7.744761,3.22534 -3.893253,0.0782 -3.966127,4.98962 -5.139213,7.0847 -3.562629,-0.17558 -4.290583,4.67687 -2.774294,7.18095 -3.347708,1.19435 -0.234265,5.71655 -0.562776,8.48941 2.437263,-1.29955 6.171982,-1.54987 8.897771,1.5419 -2.224304,3.56715 -0.136556,7.60772 -1.177504,11.5138 1.174815,4.46494 -3.413853,2.89424 -6.403981,3.16106 -2.343251,2.47759 0.605823,5.47884 3.449436,6.55715 4.567082,-0.54084 3.864122,4.14442 7.2679,5.12799 3.057032,2.05664 0.205112,6.50434 0.811862,9.22781 0.296732,4.13571 3.661329,3.89982 5.949539,5.97167 2.631455,4.23614 7.958524,4.99982 11.925032,7.37929 1.403131,-0.0715 0.452129,4.57899 1.021473,6.54397 0.729398,2.51873 -0.07772,6.33626 3.522238,6.86349 1.748215,0.86856 5.864887,4.7139 1.28543,4.39351 -2.583908,1.24467 -0.13417,5.30008 -1.684682,7.57414 -0.589452,2.55517 1.13674,4.43467 2.754564,6.18701 -2.055789,2.29157 0.500224,4.22732 -0.516499,5.88444 0.947912,2.65518 -3.830843,4.99374 -3.707753,1.08835 -1.505861,-1.60126 -6.732287,-2.81566 -5.69193,1.32612 0.397945,2.44059 -3.668469,5.44587 -0.358565,6.16319 2.771376,2.99312 -0.367261,7.07156 0.793207,10.23787 1.459341,1.91641 1.093166,5.23121 4.464077,5.20193 2.176993,1.19711 4.631929,2.92117 7.126286,3.66915 0.824965,1.93442 0.72014,4.60836 3.146931,4.64464 3.38367,3.14911 7.221849,6.25126 8.818987,10.77841 2.595068,-0.90859 5.664357,-5.98933 7.34483,-2.44564 3.7094,2.80802 8.177405,4.84441 10.419229,9.12332 3.211104,1.86132 5.29581,4.43955 5.386408,8.26408 2.446542,2.89736 4.934264,5.33886 6.768245,0.56606 2.11245,1.22928 -2.021977,6.49415 2.19305,7.16016 2.91258,1.27728 5.26362,4.85277 8.71054,3.95046 -0.7127,3.88588 1.86501,5.2979 5.23314,5.69353 4.00375,-0.19596 3.11169,8.56058 5.8348,5.15305 1.55831,-1.93758 4.35275,3.76345 6.61788,0.28936 2.94673,-0.55758 4.87794,5.48788 8.30911,4.247 3.17376,0.26279 5.9695,1.51537 9.47656,-0.19075 2.33186,-0.46356 8.43232,-2.95413 7.39327,1.46719 -1.99894,2.1814 -2.06485,8.31874 2.01577,6.69397 3.8831,-4.2548 8.3897,-9.09916 14.19201,-9.99585 3.96243,0.46546 5.07623,5.89115 9.48677,5.04859 2.54263,0.0184 8.74343,1.5012 6.42605,4.7997 -0.45291,3.92008 5.22303,3.70774 5.11261,5.31456 -1.60453,1.90246 -0.1213,6.21323 1.36214,6.36212 2.6957,0.95365 5.76315,-1.90187 7.83979,0.29516 4.50573,0.64724 8.922,0.67016 13.31844,-0.73788 0.0611,-3.48538 3.93859,-4.68151 5.98484,-6.69516 4.49065,-0.3399 8.26336,-2.43027 12.27727,-4.15143 0.47936,-2.84039 5.46952,-4.56639 7.5631,-2.71164 2.71163,-0.0243 4.52056,0.74063 6.76989,2.36116 2.80428,1.10763 4.62241,5.0745 5.77185,4.91571 2.27541,-1.75446 6.98679,-3.04421 5.38834,-6.76036 0.81007,-4.81341 4.46907,-1.91113 6.36022,-0.005 0.82469,3.90357 2.89296,7.3485 4.41258,10.99841 2.87009,-4.70618 3.10142,0.7498 2.78232,3.54225 0.36582,4.59382 0.90798,9.78921 -1.67552,13.88979 0.91643,2.72222 -1.85608,5.31493 -4.27961,6.14269 -1.0528,2.40813 -4.24915,3.76292 -6.03401,5.73094 -0.0627,3.53832 -2.50908,4.24989 -3.48443,7.14479 -0.63793,3.19042 3.62187,5.6639 0.58062,8.42527 -1.5395,4.2473 2.14013,4.23604 5.06403,2.36596 1.80419,-2.68998 5.93352,-2.35245 8.41163,-1.14368 -1.31746,1.57404 2.38824,5.27591 1.94331,8.52879 -0.27755,3.87861 3.75573,6.0716 7.2245,5.26516 -0.90255,1.76859 -1.087,6.05662 -2.80372,8.45264 -2.14684,2.98382 -0.041,5.75014 3.32695,5.23167 4.96709,-0.4217 4.91436,2.31024 6.74604,5.42405 1.94211,3.11966 2.51656,6.67521 5.61639,3.44348 2.99952,3.07059 5.32099,-3.82594 7.85974,-2.03849 1.51564,2.77724 1.452,8.39544 5.85278,6.01466 4.36201,2.02334 4.89537,-0.57476 4.72727,-4.61106 1.54219,-4.25513 -4.39094,-8.25272 -1.44184,-12.06238 3.73493,1.27321 8.17249,-0.25289 9.92427,-3.96601 2.97103,0.52507 5.1725,6.03755 7.94553,2.32926 2.21484,-6.08688 4.11567,2.80263 5.61272,-1.00113 1.68611,-3.60955 5.496,6.5575 6.19755,-0.71193 1.25758,-2.56034 4.02263,0.41436 6.56105,-2.13223 4.81366,0.012 2.81843,-4.51409 6.41909,-5.89006 2.88126,-3.43595 4.7425,2.52636 7.99261,2.79942 2.93233,0.69098 5.39888,0.98741 7.90731,1.54063 5.88293,-1.50067 1.71764,1.9556 1.39128,5.03982 2.08389,2.14407 0.84269,7.50372 5.27674,7.11167 2.41717,1.80501 4.91529,3.79688 8.13392,4.62035 3.09937,-2.49333 5.41287,1.21039 8.22718,-0.38737 2.42112,0.58385 4.93405,-1.56209 5.29416,-3.52329 1.28945,2.49094 2.83796,2.10533 5.40318,2.3663 0.8789,4.91032 3.11032,1.81749 7.06375,1.2353 3.7252,-1.53334 2.69852,0.75467 1.56992,3.73074 -1.98757,4.43121 1.7696,4.69979 1.54557,8.60334 2.88218,1.00977 1.69993,5.74444 5.86975,3.9849 2.75927,0.7437 6.6315,-2.55823 5.3857,-5.16592 -2.29414,-1.72197 -2.11339,-4.62891 -4.44371,-5.78964 1.91984,-2.5143 5.40251,-1.8789 6.53008,-5.22036 3.22421,-0.42056 5.74748,-2.12886 9.02038,-2.58254 3.17959,-0.18018 3.22687,-3.42546 5.86817,-4.10939 3.37552,0.491 5.24105,-0.8537 7.7085,-1.05564 2.07647,-2.82731 7.37898,0.0318 5.46021,-4.86991 2.00658,4.03324 3.55844,-3.15279 6.43787,-2.89613 2.3746,-1.50306 -2.00672,-7.36644 0.293,-6.31403 3.53578,1.28057 0.93449,5.0765 4.35289,4.21088 2.85172,0.0135 6.02257,2.02619 5.13077,-1.58615 0.76927,-2.86552 2.49494,0.54932 2.63788,-4.24271 0.0583,3.62914 5.24505,1.32641 5.98971,-1.19453 1.57878,-2.38754 4.79227,4.12803 6.10804,-0.64026 0.69499,-1.3759 4.15131,-0.47675 6.49639,-2.53706 2.22655,-2.43233 6.89992,-0.6993 5.71844,-5.40484 4.36199,-0.82663 0.81639,-3.48098 5.37297,-4.12322 3.31085,-1.31366 -1.9986,-2.83149 2.74023,-2.96515 1.90668,-1.21827 2.17117,-2.2851 3.08298,-3.38699 1.0685,-1.23586 2.09306,-3.7693 4.4443,-6.0459 0.4671,-2.12348 -0.11502,-5.7038 4.13428,-5.65153 3.35738,1.08499 4.84542,-4.40282 4.16891,-4.61165 3.26209,-0.78931 -0.2465,-4.70122 3.23818,-5.26733 4.94423,0.38614 -2.95833,-5.85696 2.28246,-3.5914 4.84529,1.13283 0.0542,-4.48199 2.76188,-6.19368 -1.03696,-2.56011 -2.30796,-5.70543 0.377,-7.97667 -0.82731,-1.69099 -0.41577,-5.54683 2.00261,-6.85439 1.95326,-1.72855 2.08468,-4.65603 3.92303,-6.35927 2.11921,-2.19062 0.0661,-5.67262 2.03523,-8.15819 2.12831,-2.49847 2.46296,-7.96471 2.84076,-1.77086 0.78419,-3.29178 6.32247,-4.95219 5.24361,-7.76414 -2.45831,-2.79772 -0.35189,-4.35833 0.07,-7.26454 1.7718,-2.28366 1.88717,-4.31838 1.32707,-6.99559 -1.5448,-3.43194 0.64525,-5.71023 3.87399,-6.58639 0.5096,-3.34401 -3.28441,-4.93808 -5.94714,-4.55631 -2.26532,3.09506 -4.07355,2.83006 -7.00235,-0.29513 -2.92777,-0.55442 -7.3885,2.58485 -3.43539,-1.71953 3.3022,-2.71275 7.99471,-5.05946 7.881,-9.99404 -2.33353,-3.09514 -6.64197,-3.0407 -9.16793,-5.77379 2.81963,1.2235 8.12319,3.72933 9.40776,-0.68253 -2.12005,-2.89457 -4.53674,-6.39496 -8.35632,-6.88057 -0.19393,-4.09624 -4.64396,-4.12071 -7.61844,-5.23883 1.00567,-4.54279 -3.93045,-7.68895 -5.56967,-11.59757 -2.65117,-3.96995 -3.80756,-10.12034 -9.58471,-10.45358 -3.18876,-0.60051 -5.90884,-2.90602 -8.30812,-3.8803 1.27298,-2.12605 1.6346,-4.95464 2.98526,-7.40824 2.09385,-1.85145 3.48566,-3.76281 4.55666,-6.78602 1.44906,-3.35867 2.06614,-1.14858 4.9427,-3.79343 1.35214,-2.67439 4.2e-4,-6.07207 3.9105,-7.20206 2.34276,-2.17885 5.55278,-3.45472 7.32566,-6.21081 2.91076,0.36346 4.54539,1.79191 7.1019,-1.34658 -2.04543,-2.28754 1.44341,-6.88266 -1.8622,-8.06605 -3.09448,-0.43007 -5.93643,-0.9034 -9.09505,0.66898 -2.64476,2.29697 -3.99832,-1.42624 -6.65297,-1.08613 -2.53026,-2.39441 -6.07823,-2.1068 -8.4808,0.33196 -1.86352,2.40852 -3.73302,5.01533 -5.10708,7.78234 -0.15357,3.96549 -6.22985,2.61378 -7.58644,0.68436 0.31476,-3.48875 -0.956,-7.78375 -4.97046,-8.18982 -2.25274,-1.73197 -4.61513,-2.30445 -6.95464,-0.16834 -3.78349,-2.22531 -6.75763,-6.91852 -4.40872,-11.19709 2.22654,-3.41984 5.16367,1.32553 7.4893,-1.71553 2.74243,-1.69938 6.10779,0.6472 5.42308,-4.30881 -0.0396,-3.20478 2.56887,-5.50135 4.13226,-7.40476 1.08462,-2.21836 4.67323,-3.21662 6.49317,-5.25726 3.90583,-1.0798 1.32074,-5.70053 4.50097,-7.74757 1.08481,-3.54385 3.78722,-3.69405 7.04257,-4.61861 2.28394,-0.7576 6.83814,3.36097 4.78364,5.62001 -0.78888,2.90483 -2.37351,4.88171 -4.67348,6.71064 0.87727,3.46166 -5.56953,4.85463 -1.03557,6.27359 1.9471,1.33849 5.69435,2.65697 2.12847,4.46095 -1.60618,1.19053 -4.08649,2.94514 -2.93301,5.51553 1.8287,3.88452 4.88127,-0.96238 6.74523,-2.71169 2.56124,-1.78962 4.85888,-3.95339 6.05275,-6.85115 2.91977,-1.98656 5.05705,-5.98666 8.80297,-6.19055 1.40871,-2.36627 4.8373,-3.19693 7.67378,-3.56019 4.18815,-0.81576 2.40267,-5.53926 5.14529,-7.74716 2.82922,-4.57472 7.4482,-7.49409 11.03772,-11.28129 2.0638,-3.70434 5.14684,-7.08725 4.51406,-11.62978 2.93376,-3.95909 5.2818,2.92448 8.92612,0.72286 2.78124,-1.05768 8.57569,0.82671 7.77959,-3.68383 0.12534,-2.68227 -6.11826,-5.83707 0.007,-6.08357 2.88155,-1.18901 7.00888,-2.79661 6.78308,-6.47451 2.81903,-1.38612 4.67498,-3.20964 3.79108,-7.42536 -0.0486,-6.11929 3.1137,2.40805 6.52406,0.95609 7.15057,2.24127 -2.77117,-2.87215 2.41149,-4.65482 3.25162,-1.84716 2.14865,-6.49212 3.36229,-9.64128 -3.61617,-2.75106 -1.11052,-8.21329 -4.29798,-11.39196 -1.09216,-2.90851 -5.8585,-6.57133 -1.12531,-7.90316 1.42706,-3.50988 2.2846,-6.20111 6.32148,-5.01182 2.49989,-0.98012 8.35588,0.90236 8.73092,-1.88722 -1.39515,-3.75624 0.80009,-6.20775 1.36376,-9.49658 -0.62593,-3.54304 1.7258,-6.82945 1.09294,-10.04148 -1.16402,-4.12744 0.15066,-8.72195 -1.23922,-12.9279 1.46823,-2.2598 3.97747,-5.00418 2.96731,-7.89556 -3.40488,-1.51248 -1.72118,-5.57849 -3.29936,-7.47059 -3.19835,-2.86879 -5.74877,-0.0247 -8.37123,2.02736 -1.66142,2.86063 -4.06125,3.67487 -6.70095,5.214 -3.03311,1.60006 -1.90513,6.6838 -6.0266,6.99844 -2.83812,2.15902 -6.68647,0.57445 -9.44872,2.84173 -3.99305,-1.50609 -3.09578,-4.46675 -4.0639,-7.13782 -3.71326,-1.00257 -2.20886,-7.72875 -5.08564,-7.21361 -3.7961,2.28278 -6.87468,-2.32503 -10.29919,-3.61072 -2.65102,-0.96825 -5.57788,1.61995 -8.37384,-1.30423 -2.56335,-0.7327 -5.27741,3.83558 -8.19803,1.63958 -3.67505,-1.29371 -1.82359,-6.06575 -4.46042,-7.44951 -2.01708,-2.15239 -1.81267,-6.43678 -5.34964,-8.21051 -2.76704,-2.34223 -2.11303,-6.31397 -5.38658,-8.5948 -3.29449,-2.7988 -2.9221,-7.45881 -6.08664,-10.39213 -2.81775,-1.42927 -3.50314,-4.92514 -6.40886,-6.01478 -3.22659,-1.01599 -6.3882,-4.95723 -9.68291,-2.30263 -3.88354,0.49412 -8.42467,-2.84836 -12.36253,-2.92042 z m 35.34363,320.25112 c -4.85415,0.5607 -4.05088,-0.33134 0.10647,-0.86802 2.59226,-1.04601 0.75323,-0.13043 -0.10647,0.86802 z m 14.86795,-0.0923 c -0.0403,0.83602 -0.40674,-0.32175 0,0 z m -19.05533,50.2116 c 2.39712,2.33124 -1.12278,-0.21836 0,0 z m 22.7262,13.66893 c -0.49298,3.05092 -3.85077,2.93116 -5.22218,5.70363 -0.69353,3.09897 -2.56376,5.24844 -3.23695,8.3754 -1.86239,6.05552 -5.85073,12.48636 -3.45868,18.90635 2.70647,3.22683 2.58323,9.24561 7.72985,9.86717 3.50644,0.5348 1.11475,6.38263 4.64914,6.06779 3.60209,-0.0966 2.6387,-4.82681 1.97377,-7.23107 0.44489,-4.23851 3.97105,-7.28225 4.19085,-11.65041 1.41544,-6.44635 0.0697,-13.41516 1.98875,-19.63497 -0.84157,-2.9083 -0.8628,-5.0969 -0.074,-7.69464 -2.11506,-1.88551 -5.00177,-2.71583 -7.54434,-3.24419 -0.57573,-0.2065 -0.78824,0.0588 -0.99611,0.53494 z m -122.63287,87.76886 c -3.0285,2.04581 -7.18494,1.78991 -10.14563,3.09901 -1.94299,2.0126 -5.519,-1.11244 -7.69223,1.40195 -0.073,1.82953 -5.92557,0.51238 -4.5932,4.31649 -0.69648,2.74285 -5.77672,3.01573 -6.32716,6.36408 -0.012,2.73183 -0.42574,5.89123 1.14367,8.61455 -0.63974,3.66713 2.94964,4.07306 5.44688,5.26563 3.13278,0.84967 5.97808,1.42804 8.97399,1.49751 2.27109,-1.0632 2.98231,-3.51687 6.08985,-3.6248 -0.43007,-3.52869 3.96266,-2.84081 5.03781,-4.94609 0.4839,-4.96415 1.46712,-10.44177 5.90291,-13.46602 -0.61855,-2.6633 -0.97009,-6.10582 -1.84863,-8.14488 -0.65549,-0.0496 -1.36254,-0.85148 -1.98826,-0.37743 z"
     id="path3039"
     inkscape:connector-curvature="0" />
  <path
     inkscape:connector-curvature="0"
     d="m 306.78652,464.26832 21.29271,-12.88603 c 4.10784,7.28325 7.84468,13.44526 16.80783,13.44526 8.59162,0 14.00837,-3.36078 14.00837,-16.43353 l 0,-88.90273 26.14691,0 0,89.27261 c 0,27.08154 -15.8743,39.40835 -39.0346,39.40835 -20.91678,0 -33.05809,-10.83295 -39.22122,-23.90613"
     id="j"
     style="fill:#f7df1e;fill-opacity:1" />
  <path
     inkscape:connector-curvature="0"
     d="m 399.24448,461.46666 21.28995,-12.32682 c 5.60445,9.1525 12.88825,15.87597 25.77484,15.87597 10.83405,0 17.74245,-5.41665 17.74245,-12.8877 0,-8.9648 -7.09665,-12.14021 -19.05027,-17.36816 l -6.53521,-2.80333 c -18.86478,-8.02963 -31.37874,-18.11509 -31.37874,-39.4067 0,-19.6106 14.94134,-34.55304 38.28825,-34.55304 16.62233,0 28.5754,5.79049 37.1659,20.91898 l -20.35808,13.07317 c -4.48268,-8.03017 -9.33743,-11.20503 -16.80782,-11.20503 -7.65755,0 -12.51396,4.85586 -12.51396,11.20503 0,7.84469 4.85641,11.0201 16.06145,15.87652 l 6.53631,2.80112 c 22.2257,9.52569 34.73964,19.23686 34.73964,41.08771 0,23.53404 -18.48993,36.42008 -43.32959,36.42008 -24.27988,0 -39.96869,-11.57878 -47.62512,-26.7078"
     id="s"
     style="fill:#f7df1e;fill-opacity:1" />
</svg>
